PathFileType	4	(x/y/z)	S10_PSF_T07
DataRate	CameraRate	NumFrames	NumMarkers	Units	OrigDataRate	OrigDataStartFrame	OrigNumFrames
240	240	11	51	mm	240	378	431
Frame#	Time	Sternum			R.Acromium			L.Acromium			Top.Head			R.ASIS			L.ASIS			R.PSIS			L.PSIS			R.Great.Tro			L.Great.Tro			R.Iliac.Crest			L.Iliac.Crest			V.Sacral			R.Thigh.Upper.Post			R.Thigh.Lower.Ant			R.Thigh.Lower.Post			R.Thigh.Upper.Ant			R.Knee.Lat			R.Knee.Med			R.Shank.Upper.Post			R.Shank.Lower.Ant			R.Shank.Lower.Post			R.Shank.Upper.Ant			R.Ankle.Lat			R.Ankle.Med			R.Heel.Upper			R.Heel.Med			R.Heel.Lat			R.Toe.Lat			R.Toe.Med			R.Toe.Tip			L.Thigh.Upper.Post			L.Thigh.Lower.Ant			L.Thigh.Lower.Post			L.Thigh.Upper.Ant			L.Knee.Lat			L.Knee.Med			L.Shank.Upper.Post			L.Shank.Lower.Ant			L.Shank.Lower.Post			L.Shank.Upper.Ant			L.Ankle.Lat			L.Ankle.Med			L.Heel.Upper			L.Heel.Med			L.Heel.Lat			L.Toe.Lat			L.Toe.Med			L.Toe.Tip			Cervical.Spine			Back			
		X1	Y1	Z1	X2	Y2	Z2	X3	Y3	Z3	X4	Y4	Z4	X5	Y5	Z5	X6	Y6	Z6	X7	Y7	Z7	X8	Y8	Z8	X9	Y9	Z9	X10	Y10	Z10	X11	Y11	Z11	X12	Y12	Z12	X13	Y13	Z13	X14	Y14	Z14	X15	Y15	Z15	X16	Y16	Z16	X17	Y17	Z17	X18	Y18	Z18	X19	Y19	Z19	X20	Y20	Z20	X21	Y21	Z21	X22	Y22	Z22	X23	Y23	Z23	X24	Y24	Z24	X25	Y25	Z25	X26	Y26	Z26	X27	Y27	Z27	X28	Y28	Z28	X29	Y29	Z29	X30	Y30	Z30	X31	Y31	Z31	X32	Y32	Z32	X33	Y33	Z33	X34	Y34	Z34	X35	Y35	Z35	X36	Y36	Z36	X37	Y37	Z37	X38	Y38	Z38	X39	Y39	Z39	X40	Y40	Z40	X41	Y41	Z41	X42	Y42	Z42	X43	Y43	Z43	X44	Y44	Z44	X45	Y45	Z45	X46	Y46	Z46	X47	Y47	Z47	X48	Y48	Z48	X49	Y49	Z49	X50	Y50	Z50	X51	Y51	Z51	

378	1.5708	697.95	1267	306.53	557.12	1420.7	449.48	604.89	1459	153.03	546.07	1743.6	318.42	644.99	1005.6	399.4	640.79	1016.5	169.85	442.19	1022.2	318	446.93	1031.6	236.8	584.99	928.39	474.3	569.85	955.78	113	547.27	1083.5	445.04	577.96	1091.5	144.94	423.03	993.03	278.95	681.43	738.16	477.63	762.9	690.97	438.23	714.38	654.96	471.37	730.01	775.97	438.85	757.54	535.67	431.83	758.17	537.33	304.54	735.38	303.7	433.98	814.61	257.54	427.06	753.44	231.98	429.99	801.92	333.23	431.06	797.88	126.53	414.77	816.26	140.32	337.49	758.16	67.593	358.26	777.71	43.262	332.97	764.08	43.804	393.12	924.78	70.354	461.21	964.05	87.036	360.03	1008.9	117.33	408.57	476.23	700.7	124.21	527.6	604.3	151.53	451.34	607.81	152.61	550.54	687.98	129.84	462.63	513.01	161.93	476.47	511.81	289.94	360.57	311.87	176.4	411.18	215.15	196.53	350.64	236.11	191.69	421.61	290	180.89	359.36	110.18	210.38	376.05	125.24	296.56	288.12	83.478	260.74	298.53	49.729	292.28	291.96	54.625	227.82	466.49	41.343	182.96	498.39	42.987	291.02	552.32	51.341	240.93	503.76	1492.2	299.24	420.47	1287.3	267.27
379	1.575	703.11	1265.8	306.69	562.33	1419.5	449.71	610.31	1457.9	153.33	551.2	1742.4	318.84	650.3	1004.5	399.51	645.97	1015.5	169.91	447.44	1021.2	318.12	452.11	1030.7	236.93	590.19	927.03	474.31	574.83	954.94	113	552.48	1082.3	445.14	583.15	1090.5	145.02	428.24	992.04	279.04	685.21	736	477.42	766.4	688.28	438.1	717.51	652.55	470.99	734.18	773.53	438.87	761.17	533.83	431.18	761.42	535.02	303.76	744.69	301.63	434.12	825.23	257.47	427.17	764.67	230.34	430.17	810.5	332.87	430.96	812.07	125.93	415.24	829.73	139.97	337.84	773.66	65.731	359.08	793.79	41.849	333.77	780.38	42.208	394	940.69	73.103	461.31	979.1	90.542	359.9	1023.4	122.09	408.14	479.76	700.69	124.07	530.26	603.77	151.65	454.21	607.88	152.58	553.86	687.4	129.71	464.89	512.92	161.81	478.87	511.64	289.84	361.8	312.23	176.41	411.95	215.26	196.46	351.5	236.51	191.71	422.74	290.06	180.82	359.68	110.47	210.43	376.48	125.51	296.59	288.32	83.875	260.82	298.66	50.106	292.35	292.07	55.014	227.89	466.52	41.31	182.94	498.47	42.944	290.97	552.41	51.154	240.9	509.05	1491.1	299.43	425.68	1286.3	267.3
380	1.5792	708.28	1264.5	306.85	567.57	1418.4	449.95	615.72	1456.8	153.63	556.34	1741.2	319.28	655.63	1003.4	399.63	651.17	1014.4	169.98	452.71	1020.1	318.24	457.32	1029.7	237.06	595.42	925.66	474.32	579.84	954.09	113	557.7	1081.1	445.26	588.35	1089.4	145.1	433.48	991.02	279.14	688.99	733.82	477.23	769.9	685.55	437.98	720.63	650.13	470.63	738.35	771.06	438.91	764.79	531.99	430.56	764.58	532.68	302.99	753.83	299.69	434.23	835.57	257.51	427.25	775.67	228.85	430.28	818.88	332.57	430.85	825.93	125.52	415.64	842.87	139.8	338.13	788.84	64.101	359.84	809.5	40.681	334.5	796.32	40.866	394.8	956.16	75.997	461.32	993.7	94.154	359.68	1037.3	126.91	407.62	483.33	700.65	123.98	533	603.23	151.75	457.15	607.93	152.57	557.25	686.8	129.58	467.22	512.81	161.69	481.34	511.46	289.74	363.1	312.6	176.42	412.76	215.37	196.39	352.41	236.93	191.72	423.92	290.11	180.74	360.02	110.76	210.47	376.91	125.81	296.61	288.53	84.302	260.89	298.79	50.52	292.41	292.18	55.423	227.95	466.56	41.273	182.91	498.56	42.907	290.91	552.5	50.967	240.86	514.35	1490	299.65	430.91	1285.2	267.35
381	1.5833	713.47	1263.2	307.03	572.84	1417.2	450.21	621.13	1455.7	153.94	561.49	1740	319.72	660.98	1002.3	399.76	656.39	1013.3	170.04	457.99	1019	318.36	462.55	1028.6	237.19	600.67	924.27	474.35	584.87	953.23	113	562.94	1079.9	445.38	593.58	1088.4	145.2	438.75	989.97	279.23	692.8	731.64	477.06	773.4	682.81	437.87	723.76	647.71	470.29	742.55	768.58	438.94	768.4	530.17	429.98	767.67	530.33	302.24	762.79	297.88	434.29	845.64	257.63	427.29	786.43	227.51	430.32	827.05	332.33	430.72	839.44	125.29	415.95	855.65	139.78	338.35	803.64	62.687	360.53	824.8	39.738	335.14	811.85	39.758	395.52	971.17	78.995	461.24	1007.8	97.835	359.38	1050.8	131.76	407.01	486.93	700.56	123.94	535.82	602.7	151.83	460.17	607.96	152.55	560.7	686.19	129.45	469.65	512.7	161.58	483.91	511.26	289.65	364.45	312.98	176.41	413.61	215.48	196.32	353.38	237.37	191.72	425.16	290.16	180.65	360.37	111.08	210.49	377.37	126.11	296.62	288.74	84.761	260.93	298.92	50.972	292.45	292.3	55.854	227.99	466.59	41.232	182.88	498.64	42.876	290.85	552.59	50.778	240.83	519.66	1488.9	299.88	436.16	1284.1	267.43
382	1.5875	718.67	1262	307.21	578.16	1416	450.49	626.53	1454.6	154.27	566.65	1738.8	320.16	666.33	1001.1	399.89	661.64	1012.3	170.11	463.29	1017.8	318.49	467.8	1027.6	237.33	605.95	922.88	474.39	589.94	952.35	113	568.2	1078.7	445.51	598.84	1087.3	145.31	444.05	988.9	279.32	696.65	729.48	476.92	776.93	680.08	437.76	726.92	645.31	469.97	746.78	766.11	438.98	772.04	528.38	429.44	770.69	527.99	301.52	771.56	296.2	434.32	855.42	257.82	427.29	796.91	226.31	430.3	835.03	332.12	430.58	852.56	125.2	416.17	868.04	139.91	338.5	818.03	61.471	361.13	839.64	38.996	335.69	826.93	38.86	396.14	985.67	82.056	461.07	1021.4	101.54	358.98	1063.8	136.59	406.31	490.57	700.43	123.94	538.72	602.16	151.88	463.27	607.98	152.54	564.23	685.57	129.32	472.16	512.57	161.47	486.57	511.04	289.57	365.88	313.37	176.4	414.51	215.59	196.24	354.39	237.82	191.69	426.46	290.21	180.57	360.74	111.41	210.5	377.83	126.44	296.62	288.97	85.253	260.94	299.05	51.463	292.48	292.43	56.31	228.02	466.63	41.187	182.84	498.72	42.85	290.78	552.69	50.588	240.79	524.98	1487.8	300.14	441.41	1283	267.53
383	1.5917	723.89	1260.7	307.41	583.51	1414.8	450.78	631.92	1453.4	154.6	571.82	1737.6	320.61	671.7	999.94	400.01	666.91	1011.2	170.18	468.6	1016.7	318.62	473.08	1026.5	237.47	611.25	921.5	474.45	595.03	951.46	112.99	573.48	1077.4	445.65	604.11	1086.2	145.43	449.37	987.81	279.42	700.56	727.36	476.79	780.5	677.38	437.64	730.14	642.94	469.67	751.06	763.66	439.02	775.72	526.63	428.94	773.66	525.68	300.84	780.12	294.63	434.3	864.9	258.07	427.24	807.11	225.22	430.21	842.79	331.95	430.41	865.27	125.24	416.3	880.02	140.16	338.56	831.98	60.434	361.63	854	38.434	336.11	841.53	38.147	396.65	999.65	85.131	460.78	1034.5	105.23	358.49	1076.3	141.34	405.52	494.25	700.26	123.98	541.71	601.62	151.92	466.45	607.97	152.54	567.83	684.93	129.2	474.77	512.43	161.38	489.33	510.8	289.5	367.38	313.77	176.37	415.45	215.7	196.16	355.46	238.28	191.66	427.83	290.26	180.49	361.12	111.77	210.49	378.32	126.79	296.6	289.2	85.78	260.94	299.19	51.995	292.49	292.56	56.791	228.02	466.66	41.137	182.8	498.81	42.828	290.71	552.79	50.395	240.74	530.32	1486.7	300.41	446.69	1282	267.66
384	1.5958	729.13	1259.5	307.62	588.9	1413.6	451.1	637.31	1452.3	154.93	577	1736.4	321.07	677.08	998.77	400.14	672.2	1010.1	170.25	473.92	1015.5	318.75	478.37	1025.5	237.62	616.58	920.12	474.51	600.16	950.55	112.99	578.78	1076.2	445.79	609.4	1085.2	145.56	454.71	986.69	279.52	704.55	725.28	476.69	784.13	674.73	437.52	733.43	640.63	469.39	755.39	761.26	439.05	779.45	524.93	428.49	776.6	523.42	300.19	788.48	293.17	434.25	874.08	258.34	427.13	817.01	224.24	430.04	850.36	331.79	430.22	877.52	125.37	416.32	891.57	140.49	338.53	845.43	59.555	362.01	867.82	38.025	336.41	855.59	37.593	397.02	1013.1	88.172	460.39	1047.1	108.86	357.9	1088.3	145.98	404.65	497.97	700.04	124.06	544.79	601.07	151.94	469.72	607.94	152.54	571.5	684.28	129.07	477.49	512.27	161.3	492.19	510.54	289.44	368.95	314.18	176.34	416.44	215.82	196.07	356.59	238.77	191.61	429.26	290.31	180.4	361.53	112.14	210.47	378.82	127.16	296.57	289.45	86.343	260.9	299.33	52.569	292.49	292.7	57.299	228.01	466.7	41.083	182.76	498.89	42.812	290.64	552.89	50.2	240.7	535.67	1485.6	300.71	451.98	1280.9	267.81
385	1.6	734.39	1258.3	307.83	594.32	1412.4	451.43	642.69	1451.1	155.28	582.19	1735.2	321.54	682.47	997.59	400.27	677.51	1009	170.32	479.27	1014.3	318.9	483.7	1024.4	237.77	621.93	918.76	474.6	605.31	949.64	112.98	584.1	1074.9	445.95	614.71	1084.1	145.69	460.07	985.57	279.63	708.62	723.26	476.6	787.84	672.16	437.39	736.83	638.39	469.13	759.79	758.92	439.08	783.26	523.29	428.07	779.53	521.22	299.58	796.64	291.81	434.15	882.96	258.63	426.97	826.6	223.35	429.81	857.73	331.64	429.99	889.29	125.56	416.24	902.66	140.89	338.4	858.35	58.814	362.26	881.07	37.744	336.58	869.09	37.169	397.26	1025.9	91.13	459.89	1059	112.38	357.21	1099.7	150.44	403.7	501.74	699.78	124.19	547.97	600.53	151.93	473.09	607.88	152.54	575.26	683.62	128.94	480.31	512.09	161.23	495.17	510.26	289.39	370.6	314.61	176.3	417.47	215.94	195.98	357.78	239.27	191.55	430.76	290.35	180.32	361.95	112.54	210.44	379.34	127.54	296.52	289.7	86.944	260.85	299.47	53.186	292.46	292.85	57.837	227.98	466.75	41.025	182.7	498.98	42.8	290.57	552.99	50.003	240.64	541.04	1484.5	301.02	457.29	1279.8	267.98
386	1.6042	739.67	1257	308.06	599.79	1411.1	451.78	648.07	1450	155.63	587.39	1734	322.01	687.87	996.41	400.4	682.84	1007.9	170.39	484.62	1013.1	319.04	489.04	1023.3	237.93	627.31	917.43	474.7	610.5	948.71	112.98	589.44	1073.7	446.11	620.03	1083	145.83	465.46	984.43	279.74	712.8	721.32	476.54	791.65	669.68	437.26	740.36	636.24	468.89	764.27	756.67	439.11	787.15	521.72	427.69	782.46	519.11	299.01	804.57	290.55	434.02	891.52	258.91	426.73	835.86	222.54	429.52	864.91	331.48	429.73	900.56	125.79	416.05	913.28	141.33	338.18	870.71	58.19	362.38	893.72	37.565	336.6	881.98	36.846	397.36	1038.2	93.954	459.28	1070.4	115.73	356.41	1110.6	154.66	402.66	505.55	699.46	124.36	551.24	599.97	151.91	476.55	607.8	152.55	579.1	682.94	128.81	483.24	511.89	161.18	498.26	509.95	289.35	372.34	315.04	176.25	418.56	216.06	195.88	359.03	239.78	191.47	432.34	290.38	180.24	362.4	112.95	210.39	379.88	127.96	296.46	289.97	87.584	260.76	299.62	53.849	292.42	293	58.405	227.93	466.79	40.962	182.65	499.07	42.794	290.49	553.1	49.803	240.59	546.42	1483.4	301.36	462.61	1278.7	268.18
387	1.6083	744.98	1255.8	308.29	605.28	1409.9	452.14	653.45	1448.9	156	592.6	1732.8	322.5	693.29	995.24	400.53	688.2	1006.8	170.47	489.99	1012	319.19	494.41	1022.2	238.1	632.72	916.13	474.82	615.72	947.77	112.99	594.81	1072.5	446.28	625.38	1081.9	145.97	470.86	983.28	279.86	717.09	719.47	476.49	795.58	667.31	437.11	744.03	634.19	468.66	768.83	754.52	439.12	791.15	520.23	427.35	785.43	517.09	298.5	812.29	289.37	433.84	899.78	259.15	426.43	844.78	221.78	429.16	871.89	331.3	429.43	911.31	126.03	415.75	923.4	141.77	337.85	882.48	57.662	362.36	905.73	37.461	336.48	894.23	36.598	397.31	1049.8	96.594	458.56	1081.3	118.88	355.52	1120.9	158.6	401.55	509.42	699.1	124.57	554.62	599.41	151.87	480.11	607.68	152.57	583.02	682.25	128.68	486.28	511.67	161.14	501.48	509.62	289.32	374.16	315.49	176.19	419.71	216.19	195.78	360.35	240.32	191.38	434	290.41	180.17	362.87	113.39	210.32	380.45	128.39	296.39	290.25	88.266	260.66	299.78	54.56	292.37	293.16	59.007	227.86	466.84	40.895	182.58	499.15	42.792	290.42	553.21	49.601	240.53	551.82	1482.3	301.72	467.95	1277.6	268.4
388	1.6125	750.3	1254.6	308.54	610.81	1408.7	452.53	658.83	1447.8	156.37	597.82	1731.6	322.99	698.71	994.07	400.66	693.58	1005.7	170.55	495.37	1010.8	319.35	499.8	1021	238.27	638.15	914.86	474.95	620.96	946.83	112.99	600.2	1071.2	446.46	630.74	1080.8	146.12	476.28	982.13	279.99	721.52	717.72	476.45	799.64	665.08	436.94	747.86	632.25	468.44	773.5	752.49	439.13	795.27	518.81	427.03	788.46	515.18	298.03	819.78	288.26	433.62	907.72	259.35	426.05	853.35	221.07	428.75	878.69	331.09	429.08	921.51	126.25	415.35	933.02	142.2	337.43	893.61	57.209	362.21	917.08	37.408	336.21	905.82	36.397	397.12	1060.8	99.004	457.72	1091.5	121.78	354.52	1130.7	162.2	400.36	513.35	698.68	124.82	558.12	598.84	151.82	483.77	607.53	152.6	587.03	681.54	128.57	489.45	511.42	161.12	504.82	509.26	289.31	376.07	315.95	176.12	420.9	216.31	195.68	361.73	240.87	191.28	435.73	290.43	180.1	363.36	113.86	210.24	381.04	128.85	296.29	290.54	88.991	260.52	299.94	55.32	292.29	293.33	59.645	227.77	466.9	40.823	182.52	499.24	42.797	290.34	553.32	49.397	240.47	557.24	1481.2	302.11	473.32	1276.5	268.64
